<svg xmlns="http://www.w3.org/2000/svg" xmlns:xlink="http://www.w3.org/1999/xlink" width="500" zoomAndPan="magnify" viewBox="0 0 375 374.999991" height="500" preserveAspectRatio="xMidYMid meet" version="1.0"><defs><g/></defs><g fill="#000000" fill-opacity="1"><g transform="translate(63.140625, 202.874987)"><g><path d="M 39.078125 -25.59375 L 16.6875 -25.59375 L 16.6875 -21.609375 L 39.078125 -21.609375 L 39.078125 0 L 2.453125 0 L 2.453125 -8.859375 L 30.21875 -8.859375 L 30.21875 -12.75 L 2.453125 -12.75 L 2.453125 -21.609375 L 7.828125 -21.609375 L 7.828125 -25.59375 L 2.453125 -25.59375 L 2.453125 -34.453125 L 7.828125 -34.453125 L 7.828125 -40.0625 L 16.6875 -40.0625 L 16.6875 -34.453125 L 39.078125 -34.453125 Z M 39.078125 -25.59375 "/></g></g></g><g fill="#000000" fill-opacity="1"><g transform="translate(104.671403, 202.874987)"><g><path d="M 35.875 -25.59375 L 20.171875 -25.59375 L 20.171875 -21.65625 L 35.875 -21.65625 L 35.875 -12.796875 L 11.3125 -12.796875 L 11.3125 -8.859375 L 35.875 -8.859375 L 35.875 0 L 2.453125 0 L 2.453125 -21.65625 L 11.3125 -21.65625 L 11.3125 -25.59375 L 2.453125 -25.59375 L 2.453125 -34.453125 L 35.875 -34.453125 Z M 35.875 -25.59375 "/></g></g></g><g fill="#000000" fill-opacity="1"><g transform="translate(143.00373, 202.874987)"><g><path d="M 35.53125 -34.453125 L 27.90625 0 L 13 0 L 7.234375 -25.984375 L 2.453125 -25.984375 L 2.453125 -34.453125 L 14.265625 -34.453125 L 19.984375 -8.46875 L 20.921875 -8.46875 L 26.671875 -34.453125 Z M 35.53125 -34.453125 "/></g></g></g><g fill="#000000" fill-opacity="1"><g transform="translate(180.9916, 202.874987)"><g><path d="M 39.125 -34.453125 L 31.15625 -17.765625 L 33.671875 -17.765625 L 33.671875 -8.90625 L 26.921875 -8.90625 L 22.6875 0 L 13.046875 0 L 17.328125 -8.90625 L 13.046875 -8.90625 L 13.046875 -17.765625 L 21.5625 -17.765625 L 25.296875 -25.59375 L 2.453125 -25.59375 L 2.453125 -34.453125 Z M 39.125 -34.453125 "/></g></g></g><g fill="#000000" fill-opacity="1"><g transform="translate(222.571587, 202.874987)"><g><path d="M 35.875 -25.59375 L 20.171875 -25.59375 L 20.171875 -21.65625 L 35.875 -21.65625 L 35.875 -12.796875 L 11.3125 -12.796875 L 11.3125 -8.859375 L 35.875 -8.859375 L 35.875 0 L 2.453125 0 L 2.453125 -21.65625 L 11.3125 -21.65625 L 11.3125 -25.59375 L 2.453125 -25.59375 L 2.453125 -34.453125 L 35.875 -34.453125 Z M 35.875 -25.59375 "/></g></g></g><g fill="#000000" fill-opacity="1"><g transform="translate(260.903902, 202.874987)"><g><path d="M 20.171875 -34.453125 L 29.03125 -34.453125 L 29.03125 0 L 20.171875 0 L 20.171875 -16.734375 L 11.3125 -23.875 L 11.3125 0 L 2.453125 0 L 2.453125 -34.453125 L 11.3125 -34.453125 L 20.171875 -27.265625 Z M 20.171875 -34.453125 "/></g></g></g></svg>